<?xml version="1.0" encoding="UTF-8" standalone="no"?>
<!-- Created with Inkscape (http://www.inkscape.org/) -->
<svg xmlns:svg="http://www.w3.org/2000/svg" xmlns="http://www.w3.org/2000/svg" version="1.0" width="602.36218" height="250.01575" id="svg2407">
  <defs id="defs2409"/>
  <g transform="translate(-11.473737,-205.65222)" id="layer1">
    <g transform="matrix(7.019615,0,0,-7.019615,-2947.5457,6054.6016)" id="g2666">
      <path d="M 461.573,826.867 C 461.573,828.41 462.008,828.805 463.531,828.805 C 467.192,828.805 467.587,825.541 467.587,822.494 C 467.587,818.201 466.677,815.827 462.285,815.827 L 461.573,815.827 L 461.573,826.867 z M 450.018,801.027 L 465.193,801.027 L 465.193,802.036 C 462.522,802.115 461.573,802.353 461.573,805.815 L 461.573,814.085 L 464.105,814.085 C 466.875,814.085 469.447,814.58 471.248,815.569 C 473.701,816.954 475.521,819.23 475.521,822.731 C 475.521,825.62 474.393,827.599 471.901,829.082 C 469.724,830.408 466.143,830.487 462.443,830.487 L 450.018,830.487 L 450.018,829.498 C 452.689,829.399 453.639,829.162 453.639,825.719 L 453.639,805.815 C 453.639,802.353 452.689,802.115 450.018,802.036 L 450.018,801.027 z M 424.06,801.027 L 440.304,801.027 L 440.304,802.036 C 436.762,802.115 435.595,802.748 435.595,805.776 L 435.595,815.747 C 440.264,815.747 441.827,813.571 442.381,809.218 L 443.39,809.218 L 443.39,823.78 L 442.381,823.78 C 441.827,819.447 440.264,817.271 435.595,817.271 L 435.595,826.787 C 435.595,828.291 435.911,828.805 437.277,828.805 L 438.938,828.805 C 444.399,828.805 446.892,827.48 447.98,822.178 L 448.989,822.178 L 448.653,830.487 L 424.06,830.487 L 424.06,829.498 C 426.711,829.399 427.661,829.162 427.661,825.719 L 427.681,805.815 C 427.681,802.353 426.711,802.115 424.06,802.036 L 424.06,801.027" id="path57" style="fill:#0e428e;fill-opacity:1;fill-rule:evenodd;stroke:none"/>
      <path d="M 493.407,827.836 C 496.058,825.185 496.434,818.794 496.434,815.174 C 496.434,808.902 494.614,801.621 490.598,801.621 C 486.542,801.621 484.721,808.902 484.721,815.174 C 484.721,818.794 485.077,825.185 487.748,827.836 L 487.748,830.705 C 480.903,829.36 476.352,823.305 476.352,815.53 C 476.352,806.765 482.189,800.137 490.598,800.137 C 498.967,800.137 504.823,806.765 504.823,815.53 C 504.823,823.305 500.253,829.399 493.407,830.705 L 493.407,827.836" id="path69" style="fill:#c60212;fill-opacity:1;fill-rule:evenodd;stroke:none"/>
    </g>
  </g>
</svg>