<?xml version="1.0" encoding="UTF-8"?>
<!-- Generator: Adobe Illustrator 23.0.1, SVG Export Plug-In . SVG Version: 6.00 Build 0)  -->
<svg version="1.1" id="Layer_1" xmlns="http://www.w3.org/2000/svg" xmlns:xlink="http://www.w3.org/1999/xlink" x="0px" y="0px" viewBox="0 0 108.39 106.64" style="enable-background:new 0 0 108.39 106.64;" xml:space="preserve">
<style type="text/css">
	.st0{fill:#ED1C24;}
	.st1{clip-path:url(#SVGID_2_);fill:#FFFFFF;}
	.st2{clip-path:url(#SVGID_2_);fill-rule:evenodd;clip-rule:evenodd;fill:#FFFFFF;}
</style>
<rect class="st0" width="108.39" height="106.64"/>
<g>
	<defs>
		<rect id="SVGID_1_" width="108.39" height="106.64"/>
	</defs>
	<clipPath id="SVGID_2_">
		<use xlink:href="#SVGID_1_" style="overflow:visible;"/>
	</clipPath>
	<path class="st1" d="M19.81,88.98c3.04,0,5.37-0.61,5.73-2.69c0.2-1.12-0.37-1.83-1.71-2.46c-0.69-0.33-1.51-0.6-2.4-0.87   c-0.92-0.28-1.91-0.56-2.89-0.88c-3.95-1.3-8.15-3.48-7.02-9.89c1.47-8.34,10.56-10.48,17.55-10.48c3.4,0,6.68,0.47,8.98,1.24   l0.52,0.17l-2.11,7.93l-0.64-0.29c-2.13-0.98-4.66-1.44-7.24-1.44c-1.17,0-2.67,0.05-3.92,0.42c-1.25,0.38-2.1,1.02-2.29,2.13   c-0.15,0.86,0.34,1.45,1.75,2.04c1.43,0.59,3.4,1,5.34,1.62c3.96,1.26,8.15,3.49,7.03,9.85C34.93,94.3,26.46,96.6,18.67,96.6   c-3.29,0-7.33-0.47-10.34-1.43L7.79,95l2.43-8.45l0.65,0.36C12.96,88.07,16.05,88.98,19.81,88.98"/>
	<polygon class="st1" points="87.6,54.49 86.57,60.49 78.65,60.49 79.68,54.49  "/>
	<polygon class="st1" points="99.63,54.49 98.62,60.5 90.7,60.5 91.72,54.49  "/>
	<path class="st2" d="M55.22,62.27c10.64,0,15.27,4.42,13.89,12.27c-1.22,6.93-7.39,11.73-16.15,11.73l-3.06,0.13l-1.7,9.65H37.88   l5.95-33.78H55.22z M51.13,79.37l1.72-9.78h2.23c3.46,0,5.46,1.01,4.74,4.77c-0.72,3.79-3.45,5.01-6.61,5.01H51.13z"/>
	<path class="st2" d="M100.48,79.19c-1.86,10.57-8.6,17.35-18.07,17.35c-9.59,0-13.99-6.95-12.12-17.55   c1.88-10.67,8.53-17.35,18.07-17.35C98.04,61.64,102.37,68.49,100.48,79.19 M90.86,78.98c1.02-5.82,0.13-9.73-3.63-9.73   c-3.99,0-6.3,4.24-7.3,9.93c-0.98,5.55-0.13,9.73,3.63,9.73C87.54,88.91,89.9,84.4,90.86,78.98"/>
</g>
</svg>