<?xml version="1.0" encoding="UTF-8"?>
<!-- Generator: Adobe Illustrator 22.1.0, SVG Export Plug-In . SVG Version: 6.00 Build 0)  -->
<svg version="1.1" id="Ebene_1" xmlns="http://www.w3.org/2000/svg" xmlns:xlink="http://www.w3.org/1999/xlink" x="0px" y="0px" viewBox="0 0 171 80" style="enable-background:new 0 0 171 80;" xml:space="preserve">
<rect id="Linie_1_" x="0.9" y="68.3" fill="#63C3D1" width="170.1" height="2.8"/>
<g id="Die_neue_Volkspartei_1_">
	<path d="M168.9,53.2V39.3h-6.2v2.8h2.1v11.1h-2.1v2.8h8.3v-2.8H168.9z M166.7,37c1.4,0,2.4-1,2.4-2.4c0-1.4-1-2.4-2.4-2.4   c-1.4,0-2.4,1-2.4,2.4C164.4,36,165.3,37,166.7,37 M149.4,45.8c0.4-2.6,2-4,4-4c2.2,0,3.6,1.7,3.6,4H149.4z M161.2,47.2   c0-4.7-3-8.3-7.7-8.3c-5,0-8.4,3.8-8.4,8.7c0,5.4,3.4,9,8.7,9c2.9,0,5.4-1.2,7.1-3.6l-2.5-1.8c-1,1.3-2.6,2.2-4.3,2.2   c-2.6,0-4.3-1.9-4.6-4.8l11.9,0C161.2,48.2,161.2,47.6,161.2,47.2 M141.5,56.2c0.8,0,1.9-0.1,2.6-0.3v-3.1   c-0.5,0.2-1.1,0.3-1.6,0.3c-1.2,0-2-1-2-2.4v-8.5h3.3v-2.8h-3.3v-3.7h-4.1v3.7h-2.1v2.8h2.1v8.6C136.5,54.1,138.1,56.2,141.5,56.2    M130.9,38.9c-2.2,0-3.9,1.9-4.7,4.1v-3.6h-6.1v2.8h2.1v11.1h-2.1v2.8h8.7v-2.8h-2.5V47c0-2.3,1.3-3.8,3.5-3.8   c0.8,0,1.8,0.2,2.5,0.4l0.5-4.6C132.3,39,131.6,38.9,130.9,38.9 M109.2,53.6c-1.9,0-3.2-1.2-3.2-2.7s1.3-2.7,3.2-2.7   c1.8,0,3.2,1.1,3.2,2.6C112.4,52.4,111.1,53.6,109.2,53.6 M116.4,53.2V45c0-3.5-2.5-6.1-6.6-6.1c-2.7,0-5.1,0.7-7.2,1.9l1.3,2.7   c1.4-0.8,3.1-1.4,4.9-1.4c2,0,3.4,1.3,3.4,3.2v1.3c-1-0.7-2.5-1.1-4.1-1.1c-3.7,0-6.5,2-6.5,5.4c0,3.2,2.4,5.4,6,5.4   c1.9,0,3.7-0.8,4.7-2l0.3,1.7h5.8v-2.8H116.4z M92,53.2c-2.5,0-4.2-2.2-4.2-5.6c0-3.2,1.8-5.5,4.2-5.5c2.5,0,4.1,2.2,4.1,5.5   S94.4,53.2,92,53.2 M87.9,53.6c1,1.7,2.8,2.9,5.1,2.9c4.4,0,7.5-3.6,7.5-9c0-5.1-2.9-8.7-7.3-8.7c-2.5,0-4.3,1.4-5.3,3v-2.6h-6.2   v2.8h2.1l0,17h-2.1V62h8.6v-2.8h-2.5V53.6z M71.7,43.5c0-1.1,0.8-1.8,2-1.8c1.7,0,3.2,1,3.8,2.6h2.7v-5h-3.1v1.4   c-1.1-1.1-2.5-1.8-4.2-1.8c-3,0-5.2,2-5.2,4.9c0,6.6,9,4.8,9,7.7c0,1.2-0.9,2-2.3,2c-2,0-3.5-1.1-4.2-2.8h-2.7v5.4h3.1v-1.6   c1.1,1.2,2.6,1.9,4.6,1.9c3.4,0,5.7-2.1,5.7-5.3C80.8,44.4,71.7,46.4,71.7,43.5 M63.8,53.2l-5.3-6.8l4.1-4.3h2.7v-2.8h-8.4V42h2.1   l-4.7,4.9V33H48v2.8h2.1v17.4H48v2.8h8v-2.8h-1.8v-5.8l6.5,8.6h5.2v-2.8H63.8z M44.3,53.2V33h-6.2v2.8h2.1v17.4h-2.1v2.8h8.3v-2.8   H44.3z M28.9,53.3c-2.6,0-4.3-2.4-4.3-5.7c0-3.1,1.7-5.4,4.3-5.4c2.6,0,4.2,2.3,4.2,5.4C33.1,50.8,31.5,53.3,28.9,53.3 M28.9,56.5   c5.2,0,8.6-3.7,8.6-9c0-5-3.5-8.7-8.6-8.7c-5.1,0-8.6,3.6-8.6,8.7C20.3,52.8,23.7,56.5,28.9,56.5 M23.4,33.8h-8.8v2.9h2.6   l-4.7,15.1L7.9,36.7h2.6v-2.9H0.9v2.9h2.3l6.6,19.5h4.8l6.5-19.5h2.3V33.8z"/>
	<path d="M114.5,16.9c0.4-2.6,2-3.9,4-3.9c2.2,0,3.6,1.7,3.6,3.9H114.5z M126.4,18.3c0-4.7-3-8.3-7.7-8.3c-5,0-8.4,3.8-8.4,8.7   c0,5.4,3.4,9,8.7,9c2.9,0,5.4-1.2,7.1-3.6l-2.5-1.8c-1,1.3-2.6,2.2-4.3,2.2c-2.6,0-4.3-1.9-4.6-4.8l11.9,0   C126.4,19.3,126.4,18.7,126.4,18.3 M107.8,24.3V10.4h-6.2v2.8h2.1v7.3c0,2-1.5,3.6-3.4,3.6c-1.8,0-2.9-1.4-2.9-3.3V10.4h-6.2v2.8   h2.1v8.2c0,3.7,1.9,6.1,5.4,6.1c2.2,0,4.1-1.2,5-3v2.6h6.1v-2.8H107.8z M79.2,16.9c0.4-2.6,2-3.9,4-3.9c2.2,0,3.6,1.7,3.6,3.9H79.2   z M91.1,18.3c0-4.7-3-8.3-7.7-8.3c-5,0-8.4,3.8-8.4,8.7c0,5.4,3.4,9,8.7,9c2.9,0,5.4-1.2,7.1-3.6l-2.5-1.8c-1,1.3-2.6,2.2-4.3,2.2   c-2.6,0-4.3-1.9-4.6-4.8l11.9,0C91,19.3,91.1,18.7,91.1,18.3 M72.6,24.3v-8.2c0-3.7-2.2-6-5.8-6c-2.3,0-4.1,1.2-5,3v-2.6h-6.1v2.8   h2.1v11.1h-2.1v2.8h8v-2.8h-1.9v-7.3c0-2,1.5-3.5,3.5-3.5c1.8,0,3.1,1.3,3.1,3.2v7.6h-1.9v2.8h8v-2.8H72.6z M35.4,16.9   c0.4-2.6,2-3.9,4-3.9c2.2,0,3.6,1.7,3.6,3.9H35.4z M47.3,18.3c0-4.7-3-8.3-7.7-8.3c-5,0-8.4,3.8-8.4,8.7c0,5.4,3.4,9,8.7,9   c2.9,0,5.4-1.2,7.1-3.6l-2.5-1.8c-1,1.3-2.6,2.2-4.3,2.2c-2.6,0-4.3-1.9-4.6-4.8l11.9,0C47.3,19.3,47.3,18.7,47.3,18.3 M28.8,24.3   V10.4h-6.2v2.8h2.1v11.1h-2.1v2.8h8.3v-2.8H28.8z M26.6,8.2c1.4,0,2.4-1,2.4-2.4c0-1.4-1-2.4-2.4-2.4c-1.4,0-2.4,1-2.4,2.4   C24.2,7.1,25.2,8.2,26.6,8.2 M9.7,24.2H7.6V7.8h1.8c3.9,0,7,2.8,7,8C16.4,21.1,13.6,24.2,9.7,24.2 M9.9,4.9h-9v2.9h2.3v16.5H0.9   v2.9h9.4c6.6,0,10.9-4.4,10.9-11.3C21.3,8.8,16.6,4.9,9.9,4.9"/>
</g>
</svg>